<?xml version="1.0" encoding="UTF-8"?>
<svg id="Layer_1" data-name="Layer 1" xmlns="http://www.w3.org/2000/svg" viewBox="0 0 1038.207 268.821">
  <defs>
    <style>
      .cls-1 {
        fill: #fff;
      }

      .cls-2 {
        fill: #ff4e26;
      }

      .cls-3 {
        fill: #71d9ff;
      }

      .cls-4 {
        fill: #1b4dfe;
      }
    </style>
  </defs>
  <g>
    <polygon class="cls-4" points="157.993 153.363 78.997 268.821 0 153.363 38.312 177.784 43.617 181.163 78.997 203.711 114.376 181.163 119.682 177.78 157.993 153.363"/>
    <path class="cls-4" d="m157.949,137.077l-21.958,13.994-10.092,6.436h-.004l-46.897,29.891-46.893-29.891s-.004,0-.004-.005l-10.092-6.427L.049,137.077,78.997,0l78.952,137.077Z"/>
    <path class="cls-3" d="m132.884,135.284c0,7.245-2.722,15.464-6.986,22.222h-.004l-46.897,29.891-46.893-29.891s-.004,0-.004-.005c-4.264-6.758-6.986-14.973-6.986-22.217,0-12.97,9.27-23.951,22.034-26.119l2.834-.478-.237-2.865c-.071-.889-.107-1.685-.107-2.436,0-10.57,5.739-20.358,14.977-25.534l1.636-.916-.036-1.877c-.045-2.226.241-6.673,2.668-11.464,1.739-3.437,3.973-6.708,6.136-9.868,1.64-2.404,3.236-4.737,4.599-7.097,1.368,2.36,2.959,4.693,4.604,7.097,2.159,3.16,4.393,6.432,6.136,9.868,2.722,5.372,2.753,10.315,2.641,12.188l-.112,1.85,1.564.983c8.572,5.404,13.694,14.66,13.694,24.77,0,.728-.036,1.515-.107,2.404l-.237,2.878,2.856.46c12.881,2.087,22.226,13.087,22.226,26.155Z"/>
    <path class="cls-1" d="m131.244,113.957c-4.425-5.149-10.329-8.792-16.845-10.432v-.138c0-11.67-5.614-22.401-15.111-29.065-.031-3.24-.644-8.21-3.348-13.556-1.926-3.799-4.277-7.24-6.552-10.57-2.851-4.17-5.547-8.112-6.794-11.965l-2.977-9.202-2.977,9.202c-1.247,3.853-3.938,7.795-6.789,11.965-2.275,3.33-4.626,6.771-6.552,10.57-2.472,4.881-3.173,9.497-3.316,12.564-10.289,6.481-16.608,17.837-16.608,30.057v.192c-14.36,3.696-24.519,16.613-24.519,31.706,0,4.854,1.117,10.378,3.151,15.79l10.096,6.432c-4.268-6.758-6.99-14.977-6.99-22.222,0-12.966,9.265-23.951,22.034-26.115l2.834-.483-.237-2.86c-.076-.894-.112-1.69-.112-2.44,0-10.57,5.743-20.354,14.981-25.534l1.636-.916-.036-1.877c-.045-2.226.241-6.673,2.668-11.464,1.739-3.437,3.973-6.704,6.136-9.868,1.64-2.404,3.236-4.737,4.599-7.097,1.363,2.36,2.959,4.693,4.604,7.097,2.159,3.164,4.393,6.432,6.136,9.868,2.717,5.372,2.753,10.315,2.637,12.193l-.107,1.846,1.564.988c8.572,5.399,13.69,14.66,13.69,24.765,0,.728-.031,1.515-.107,2.404l-.232,2.878,2.851.465c12.881,2.083,22.231,13.082,22.231,26.15,0,7.245-2.722,15.464-6.986,22.222l10.092-6.436c2.038-5.413,3.151-10.932,3.151-15.786,0-7.826-2.807-15.402-7.897-21.328Z"/>
    <g>
      <polygon class="cls-2" points="86.087 84.029 78.999 70.268 71.911 84.029 78.999 94.388 86.087 84.029"/>
      <polygon class="cls-2" points="113.556 130.318 105.959 135.515 113.556 140.713 123.647 135.515 113.556 130.318"/>
      <polygon class="cls-2" points="44.442 130.318 34.351 135.515 44.442 140.713 52.038 135.515 44.442 130.318"/>
      <path class="cls-2" d="m78.999,119.241c0-9.215-3.641-10.106-3.641-11.667,0-.369.118-.656.296-.884.847-.249,1.806-.454,3.346-.454s2.498.205,3.346.454c.177.228.296.515.296.884,0,1.561-3.641,2.452-3.641,11.667s4.905,16.275,13.822,16.275c9.994,0,14.64-5.796,14.64-12.559,0-4.979-4.013-10.554-10.329-10.554s-10.107,3.568-10.107,9.067c0,6.242,4.799,6.911,7.208,6.911s4.161-1.412,4.161-3.121-.892-2.898-2.75-2.898-3.12.742-3.12-1.561,2.154-3.566,4.755-3.566,6.168,2.527,6.168,6.614-3.641,8.992-10.701,8.992-12.019-6.162-12.019-13.667c0-9.37,6.52-11.599,6.52-11.599,4.161,0,8.918-6.991,4.31-12.187-3.39-3.824-8.175-1.338-8.175,1.487,0,1.765.818,2.451,1.71,2.451s1.812-.669,1.812-1.932,1.532-2.006,2.201-2.006,2.452,1.412,2.452,3.27c0,3.978-3.047,5.722-6.019,5.722-2.319,0-4.495-1.804-5.343-2.599.909-.444,1.536-1.374,1.536-2.454,0-1.509-1.223-2.732-2.732-2.732s-2.732,1.223-2.732,2.732c0,1.079.628,2.01,1.536,2.454-.848.796-3.025,2.599-5.343,2.599-2.972,0-6.019-1.744-6.019-5.722,0-1.858,1.784-3.27,2.452-3.27s2.201.743,2.201,2.006.92,1.932,1.812,1.932,1.71-.687,1.71-2.451c0-2.825-4.785-5.311-8.175-1.487-4.607,5.196.149,12.187,4.31,12.187,0,0,6.52,2.229,6.52,11.599,0,7.505-4.959,13.667-12.019,13.667s-10.701-4.905-10.701-8.992,3.567-6.614,6.168-6.614,4.755,1.262,4.755,3.566-1.262,1.561-3.12,1.561-2.75,1.189-2.75,2.898,1.752,3.121,4.161,3.121,7.208-.669,7.208-6.911c0-5.499-3.79-9.067-10.107-9.067s-10.33,5.575-10.33,10.554c0,6.762,4.646,12.559,14.64,12.559,8.918,0,13.822-7.06,13.822-16.275Z"/>
      <path class="cls-2" d="m92.821,135.515c-8.918,0-13.822,7.06-13.822,16.274s3.641,10.107,3.641,11.667c0,.369-.118.656-.296.884-.847.249-1.806.454-3.346.454s-2.498-.205-3.346-.454c-.177-.228-.296-.515-.296-.884,0-1.561,3.641-2.452,3.641-11.667s-4.905-16.274-13.822-16.274c-9.994,0-14.64,5.796-14.64,12.559,0,4.979,4.013,10.554,10.33,10.554s10.107-3.568,10.107-9.067c0-6.242-4.799-6.911-7.208-6.911s-4.161,1.412-4.161,3.121.892,2.898,2.75,2.898,3.12-.742,3.12,1.562-2.154,3.566-4.755,3.566-6.168-2.526-6.168-6.614,3.641-8.992,10.701-8.992,12.019,6.162,12.019,13.667c0,9.37-6.52,11.599-6.52,11.599-4.161,0-8.918,6.991-4.31,12.187,3.39,3.824,8.175,1.338,8.175-1.487,0-1.765-.818-2.451-1.71-2.451s-1.812.669-1.812,1.932-1.532,2.006-2.201,2.006-2.452-1.412-2.452-3.27c0-3.978,3.047-5.722,6.019-5.722,2.319,0,4.495,1.803,5.343,2.599-.909.444-1.536,1.374-1.536,2.454,0,1.509,1.223,2.732,2.732,2.732s2.732-1.223,2.732-2.732c0-1.079-.628-2.01-1.536-2.454.848-.796,3.025-2.599,5.343-2.599,2.973,0,6.019,1.744,6.019,5.722,0,1.858-1.784,3.27-2.452,3.27s-2.201-.743-2.201-2.006-.92-1.932-1.812-1.932-1.71.686-1.71,2.451c0,2.825,4.785,5.311,8.175,1.487,4.607-5.196-.149-12.187-4.31-12.187,0,0-6.52-2.229-6.52-11.599,0-7.506,4.959-13.667,12.019-13.667s10.701,4.905,10.701,8.992-3.567,6.614-6.168,6.614-4.755-1.262-4.755-3.566,1.262-1.562,3.12-1.562,2.75-1.189,2.75-2.898-1.752-3.121-4.161-3.121-7.208.669-7.208,6.911c0,5.499,3.79,9.067,10.107,9.067s10.329-5.575,10.329-10.554c0-6.762-4.646-12.559-14.64-12.559Z"/>
    </g>
    <path class="cls-3" d="m115.373,185.869c0,6.87-6.047,12.716-14.383,13.904l-2.963.42.291,2.981c.045.474.067.885.067,1.265,0,5.587-3.714,10.807-9.694,13.623l-1.841.867.049,2.038c.027,1.126-.148,3.383-1.636,5.846-1.153,1.917-2.673,3.786-4.143,5.591-.885,1.091-1.757,2.159-2.552,3.231-.796-1.073-1.663-2.141-2.548-3.231-1.47-1.806-2.99-3.674-4.143-5.591-1.663-2.758-1.685-5.247-1.618-6.19l.143-2.034-1.801-.957c-5.533-2.927-8.836-7.857-8.836-13.194,0-.375.022-.782.067-1.242l.29-2.999-2.981-.407c-8.411-1.144-14.517-6.999-14.517-13.922,0-1.649.349-3.236.992-4.706l35.38,22.548,35.38-22.548c.648,1.47.997,3.057.997,4.706Z"/>
    <path class="cls-1" d="m119.682,177.78l-5.305,3.383c.648,1.47.997,3.057.997,4.706,0,6.87-6.047,12.716-14.383,13.904l-2.963.42.291,2.981c.045.474.067.885.067,1.265,0,5.587-3.714,10.807-9.694,13.623l-1.841.867.049,2.038c.027,1.126-.148,3.383-1.636,5.846-1.153,1.917-2.673,3.786-4.143,5.591-.885,1.091-1.757,2.159-2.552,3.231-.796-1.073-1.663-2.141-2.548-3.231-1.47-1.806-2.99-3.674-4.143-5.591-1.663-2.758-1.685-5.247-1.618-6.19l.143-2.034-1.801-.957c-5.533-2.927-8.836-7.857-8.836-13.194,0-.375.022-.782.067-1.242l.29-2.999-2.981-.407c-8.411-1.144-14.517-6.999-14.517-13.922,0-1.649.349-3.236.992-4.706l-5.305-3.379c-1.251,2.48-1.944,5.211-1.944,8.085,0,9.265,7.066,17.162,17.167,19.603.358,6.713,4.188,12.809,10.481,16.738.13,2.056.711,4.863,2.503,7.835,1.381,2.293,3.039,4.335,4.644,6.306,1.908,2.342,3.705,4.554,4.487,6.583l2.923,7.58,2.919-7.58c.782-2.029,2.579-4.241,4.483-6.583,1.605-1.971,3.267-4.014,4.648-6.306,1.627-2.695,2.239-5.278,2.445-7.2,6.869-3.857,11.178-10.333,11.549-17.413,10.011-2.489,17.015-10.369,17.015-19.563,0-2.874-.693-5.609-1.949-8.09Z"/>
  </g>
  <g>
    <path class="cls-4" d="m424.29,75.261v35.201s-2.945-7.493-11.6-7.493h-22.188v100.865h-28.429v-100.865h-22.188c-8.655,0-11.61,7.493-11.61,7.493v-35.201h96.016Z"/>
    <path class="cls-4" d="m556.081,75.26h-43.424s7.498,2.946,7.498,11.6v39.971h-49.069v-39.971c0-8.654,7.498-11.6,7.498-11.6h-43.424s7.498,2.946,7.498,11.6v105.37c0,8.654-7.498,11.6-7.498,11.6h43.424s-7.498-2.946-7.498-11.6v-39.971h49.069v39.971c0,8.654-7.498,11.6-7.498,11.6h43.424s-7.498-2.946-7.498-11.6v-105.37c0-8.654,7.498-11.6,7.498-11.6Z"/>
    <path class="cls-4" d="m305.949,176.123h-53.644v-23.864h46.763v-25.429h-46.763v-23.864h44.478c8.654,0,11.6,7.498,11.6,7.498v-35.205h-92.005s7.498,2.946,7.498,11.6v105.37c0,8.654-7.498,11.6-7.498,11.6h99.812v-35.137s-2.638,6.701-10.242,7.43Z"/>
    <polygon class="cls-4" points="756.164 85.082 742.383 61.154 728.601 85.082 742.383 105.225 756.164 85.082"/>
    <polygon class="cls-4" points="796.968 85.082 783.186 61.154 769.404 85.082 783.186 105.225 796.968 85.082"/>
    <path class="cls-4" d="m806.272,192.23v-68.792c0-8.654,7.498-11.601,7.498-11.601h-43.424s7.498,2.946,7.498,11.601v45.219s-.349,16.033-15.893,16.033c-10.115,0-15.392-5.481-15.392-19.909v-41.343c0-8.654,7.498-11.601,7.498-11.601h-43.424s7.498,2.946,7.498,11.601v49.963c0,16.813,10.471,33.267,30.624,33.267,19.816,0,25.625-8.277,28.591-16.893.186-.541.35-1.091.499-1.645v15.701h35.926s-7.498-2.946-7.498-11.6Z"/>
    <path class="cls-4" d="m702.464,203.831s-7.498-2.946-7.498-11.6v-65.399h-73.01s7.498,2.946,7.498,11.601v13.828h34.898c0,4.284-4.142,26.979-31.673,26.979-23.61,0-36.146-19.082-36.146-39.693s15.412-38.583,37.61-38.583c17.57,0,27.694,11.725,27.694,11.725l29.378-22.426s-7.073.971-13.676-3.399c-9.801-6.547-24.515-14.718-45.925-14.718-25.268,0-62.731,15.577-62.731,67.401,0,47.401,30.907,67.123,58.857,67.123,19.297,0,32.401-12.108,39.427-26.622v23.785h35.296Z"/>
    <polygon class="cls-4" points="980.602 85.082 966.82 61.154 953.038 85.082 966.82 105.225 980.602 85.082"/>
    <polygon class="cls-4" points="1021.406 85.082 1007.624 61.154 993.842 85.082 1007.624 105.225 1021.406 85.082"/>
    <path class="cls-4" d="m1030.709,192.23v-68.792c0-8.654,7.498-11.601,7.498-11.601h-43.424s7.498,2.946,7.498,11.601v45.219s-.349,16.033-15.893,16.033c-10.115,0-15.392-5.481-15.392-19.909v-41.343c0-8.654,7.498-11.601,7.498-11.601h-43.424s7.498,2.946,7.498,11.601v49.963h0c0,16.813,10.471,33.267,30.624,33.267,19.816,0,25.626-8.277,28.591-16.893.186-.541.351-1.091.499-1.645v15.701h35.927s-7.498-2.946-7.498-11.6Z"/>
    <path class="cls-4" d="m885.434,203.831h43.424s-7.498-2.946-7.498-11.6v-49.963c0-16.814-10.471-33.267-30.624-33.267-19.816,0-25.626,8.277-28.591,16.893-.186.541-.351,1.09-.499,1.645v-15.701h-35.926s7.498,2.946,7.498,11.601v68.792c0,8.654-7.498,11.6-7.498,11.6h43.424s-7.498-2.946-7.498-11.6v-45.219s.349-16.034,15.893-16.034c10.115,0,15.392,5.482,15.392,19.91v41.343c0,8.654-7.498,11.6-7.498,11.6Z"/>
  </g>
</svg>