<?xml version="1.0" encoding="UTF-8"?>
<svg id="Layer_1" data-name="Layer 1" xmlns="http://www.w3.org/2000/svg" viewBox="0 0 593.44 457.895">
  <defs>
    <style>
      .cls-1 {
        fill: #fff;
      }

      .cls-2 {
        fill: #ff4e26;
      }

      .cls-3 {
        fill: #71d9ff;
      }

      .cls-4 {
        fill: #1b4dfe;
      }
    </style>
  </defs>
  <g>
    <polygon class="cls-4" points="391.651 184.297 296.72 323.044 201.79 184.297 247.829 213.644 254.204 217.704 296.72 244.8 339.236 217.704 345.611 213.638 391.651 184.297"/>
    <path class="cls-4" d="m391.597,164.726l-26.387,16.816-12.127,7.734h-.005l-56.357,35.921-56.352-35.921s-.005,0-.005-.006l-12.127-7.723-26.387-16.822L296.72,0l94.877,164.726Z"/>
    <path class="cls-3" d="m361.477,162.572c0,8.706-3.271,18.583-8.395,26.704h-.005l-56.357,35.921-56.352-35.921s-.005,0-.005-.006c-5.124-8.121-8.395-17.993-8.395-26.699,0-15.586,11.139-28.783,26.479-31.388l3.405-.575-.285-3.443c-.086-1.069-.129-2.025-.129-2.927,0-12.702,6.896-24.465,17.998-30.684l1.966-1.101-.043-2.256c-.054-2.675.29-8.019,3.206-13.776,2.089-4.13,4.775-8.062,7.374-11.859,1.971-2.889,3.889-5.693,5.527-8.529,1.643,2.836,3.556,5.639,5.532,8.529,2.594,3.797,5.28,7.729,7.374,11.859,3.271,6.456,3.308,12.396,3.174,14.646l-.134,2.224,1.88,1.181c10.301,6.494,16.456,17.617,16.456,29.766,0,.875-.043,1.821-.129,2.889l-.285,3.459,3.432.553c15.479,2.508,26.709,15.726,26.709,31.431Z"/>
    <path class="cls-1" d="m359.506,136.942c-5.317-6.187-12.412-10.565-20.243-12.536v-.166c0-14.024-6.746-26.919-18.159-34.927-.038-3.894-.773-9.866-4.023-16.29-2.315-4.565-5.14-8.701-7.874-12.702-3.427-5.011-6.665-9.748-8.164-14.378l-3.577-11.059-3.577,11.059c-1.498,4.63-4.732,9.367-8.158,14.378-2.734,4.001-5.559,8.137-7.874,12.702-2.97,5.865-3.813,11.413-3.985,15.098-12.364,7.788-19.958,21.435-19.958,36.119v.231c-17.257,4.442-29.465,19.964-29.465,38.101,0,5.833,1.343,12.471,3.786,18.975l12.133,7.729c-5.129-8.121-8.4-17.998-8.4-26.704,0-15.581,11.134-28.783,26.479-31.382l3.405-.58-.285-3.437c-.091-1.074-.134-2.03-.134-2.932,0-12.702,6.902-24.459,18.003-30.684l1.966-1.101-.043-2.256c-.054-2.675.29-8.019,3.206-13.776,2.089-4.13,4.775-8.056,7.374-11.859,1.971-2.889,3.889-5.693,5.527-8.529,1.638,2.836,3.556,5.639,5.532,8.529,2.594,3.803,5.28,7.729,7.374,11.859,3.265,6.456,3.308,12.396,3.169,14.652l-.129,2.218,1.88,1.187c10.301,6.488,16.451,17.616,16.451,29.76,0,.875-.038,1.821-.129,2.889l-.279,3.459,3.427.559c15.479,2.503,26.715,15.721,26.715,31.425,0,8.706-3.271,18.583-8.395,26.704l12.127-7.734c2.449-6.504,3.787-13.137,3.787-18.97,0-9.404-3.373-18.508-9.49-25.63Z"/>
    <g>
      <polygon class="cls-2" points="305.24 100.978 296.723 84.442 288.205 100.978 296.723 113.427 305.24 100.978"/>
      <polygon class="cls-2" points="338.25 156.603 329.121 162.849 338.25 169.095 350.376 162.849 338.25 156.603"/>
      <polygon class="cls-2" points="255.195 156.603 243.069 162.849 255.195 169.095 264.324 162.849 255.195 156.603"/>
      <path class="cls-2" d="m296.723,143.292c0-11.073-4.376-12.145-4.376-14.02,0-.443.142-.789.355-1.062,1.018-.299,2.171-.545,4.021-.545s3.002.246,4.02.545c.213.274.355.619.355,1.062,0,1.875-4.376,2.947-4.376,14.02s5.894,19.557,16.61,19.557c12.01,0,17.593-6.966,17.593-15.092,0-5.983-4.822-12.682-12.413-12.682s-12.145,4.288-12.145,10.896c0,7.501,5.767,8.305,8.662,8.305s5.001-1.697,5.001-3.751-1.072-3.483-3.304-3.483-3.749.892-3.749-1.876,2.588-4.285,5.714-4.285,7.412,3.036,7.412,7.948-4.376,10.806-12.859,10.806-14.443-7.405-14.443-16.424c0-11.26,7.835-13.939,7.835-13.939,5.001,0,10.716-8.401,5.179-14.646-4.074-4.595-9.824-1.607-9.824,1.787,0,2.121.984,2.946,2.055,2.946s2.177-.804,2.177-2.322,1.841-2.411,2.645-2.411,2.947,1.697,2.947,3.929c0,4.781-3.661,6.876-7.233,6.876-2.786,0-5.402-2.168-6.421-3.124,1.092-.533,1.846-1.652,1.846-2.949,0-1.813-1.47-3.284-3.284-3.284s-3.284,1.47-3.284,3.284c0,1.297.754,2.415,1.846,2.949-1.019.956-3.635,3.124-6.421,3.124-3.572,0-7.233-2.095-7.233-6.876,0-2.233,2.143-3.929,2.947-3.929s2.645.893,2.645,2.411,1.106,2.322,2.177,2.322,2.055-.825,2.055-2.946c0-3.395-5.75-6.382-9.824-1.787-5.537,6.244.179,14.646,5.179,14.646,0,0,7.835,2.679,7.835,13.939,0,9.019-5.959,16.424-14.443,16.424s-12.859-5.894-12.859-10.806,4.286-7.948,7.412-7.948,5.714,1.517,5.714,4.285-1.517,1.876-3.749,1.876-3.304,1.429-3.304,3.483,2.106,3.751,5.001,3.751,8.662-.804,8.662-8.305c0-6.608-4.554-10.896-12.145-10.896s-12.413,6.699-12.413,12.682c0,8.126,5.583,15.092,17.593,15.092,10.716,0,16.61-8.484,16.61-19.557Z"/>
      <path class="cls-2" d="m313.333,162.849c-10.716,0-16.61,8.484-16.61,19.557s4.376,12.145,4.376,14.02c0,.443-.142.789-.355,1.062-1.018.299-2.171.545-4.02.545s-3.002-.246-4.021-.545c-.213-.274-.355-.619-.355-1.062,0-1.875,4.376-2.947,4.376-14.02s-5.894-19.557-16.61-19.557c-12.01,0-17.593,6.966-17.593,15.092,0,5.983,4.822,12.682,12.413,12.682s12.145-4.288,12.145-10.896c0-7.501-5.767-8.305-8.662-8.305s-5.001,1.697-5.001,3.751,1.072,3.483,3.304,3.483,3.749-.892,3.749,1.877-2.588,4.285-5.714,4.285-7.412-3.036-7.412-7.948,4.376-10.806,12.859-10.806,14.443,7.404,14.443,16.424c0,11.26-7.835,13.939-7.835,13.939-5.001,0-10.716,8.401-5.179,14.646,4.074,4.595,9.824,1.607,9.824-1.787,0-2.121-.984-2.946-2.055-2.946s-2.177.804-2.177,2.322-1.841,2.411-2.645,2.411-2.947-1.697-2.947-3.929c0-4.781,3.661-6.876,7.233-6.876,2.786,0,5.402,2.167,6.421,3.124-1.092.533-1.846,1.652-1.846,2.949,0,1.813,1.47,3.284,3.284,3.284s3.284-1.47,3.284-3.284c0-1.297-.754-2.415-1.846-2.949,1.019-.956,3.635-3.124,6.421-3.124,3.572,0,7.233,2.095,7.233,6.876,0,2.233-2.143,3.929-2.947,3.929s-2.645-.893-2.645-2.411-1.106-2.322-2.177-2.322-2.055.825-2.055,2.946c0,3.395,5.75,6.382,9.824,1.787,5.537-6.244-.179-14.646-5.179-14.646,0,0-7.835-2.679-7.835-13.939,0-9.02,5.959-16.424,14.443-16.424s12.859,5.894,12.859,10.806-4.286,7.948-7.412,7.948-5.714-1.517-5.714-4.285,1.517-1.877,3.749-1.877,3.304-1.429,3.304-3.483-2.106-3.751-5.001-3.751-8.662.804-8.662,8.305c0,6.608,4.554,10.896,12.145,10.896s12.413-6.699,12.413-12.682c0-8.126-5.583-15.092-17.593-15.092Z"/>
    </g>
    <path class="cls-3" d="m340.434,223.36c0,8.255-7.267,15.28-17.284,16.709l-3.561.505.349,3.582c.054.569.081,1.064.081,1.52,0,6.714-4.463,12.987-11.649,16.371l-2.213,1.042.059,2.449c.032,1.353-.177,4.066-1.966,7.025-1.386,2.304-3.212,4.549-4.979,6.719-1.063,1.311-2.111,2.594-3.067,3.883-.956-1.289-1.998-2.573-3.061-3.883-1.767-2.17-3.593-4.415-4.979-6.719-1.998-3.314-2.025-6.305-1.944-7.439l.172-2.444-2.164-1.149c-6.649-3.518-10.618-9.442-10.618-15.855,0-.451.027-.94.081-1.493l.349-3.604-3.582-.489c-10.108-1.375-17.445-8.411-17.445-16.73,0-1.982.419-3.889,1.192-5.656l42.516,27.096,42.516-27.096c.779,1.767,1.198,3.674,1.198,5.656Z"/>
    <path class="cls-1" d="m345.611,213.638l-6.375,4.066c.779,1.767,1.198,3.674,1.198,5.656,0,8.255-7.267,15.28-17.284,16.709l-3.561.505.349,3.582c.054.569.081,1.064.081,1.52,0,6.714-4.463,12.987-11.649,16.371l-2.213,1.042.059,2.449c.032,1.353-.177,4.066-1.966,7.025-1.386,2.304-3.212,4.549-4.979,6.719-1.063,1.311-2.111,2.594-3.067,3.883-.956-1.289-1.998-2.573-3.061-3.883-1.767-2.17-3.593-4.415-4.979-6.719-1.998-3.314-2.025-6.305-1.944-7.439l.172-2.444-2.164-1.149c-6.649-3.518-10.618-9.442-10.618-15.855,0-.451.027-.94.081-1.493l.349-3.604-3.582-.489c-10.108-1.375-17.445-8.411-17.445-16.73,0-1.982.419-3.889,1.192-5.656l-6.375-4.06c-1.504,2.981-2.336,6.262-2.336,9.716,0,11.134,8.491,20.624,20.63,23.557.43,8.067,5.033,15.393,12.595,20.114.156,2.471.854,5.843,3.008,9.415,1.66,2.755,3.652,5.21,5.58,7.578,2.293,2.814,4.452,5.473,5.392,7.911l3.513,9.109,3.507-9.109c.94-2.438,3.099-5.097,5.387-7.911,1.928-2.369,3.926-4.823,5.586-7.578,1.955-3.239,2.691-6.343,2.938-8.652,8.255-4.635,13.433-12.418,13.878-20.925,12.031-2.991,20.447-12.461,20.447-23.508,0-3.454-.833-6.74-2.342-9.721Z"/>
  </g>
  <g>
    <path class="cls-4" d="m150.132,363.007v25.419s-2.127-5.411-8.376-5.411h-16.022v72.834h-20.529v-72.834h-16.022c-6.25,0-8.384,5.411-8.384,5.411v-25.419h69.333Z"/>
    <path class="cls-4" d="m245.298,363.006h-31.357s5.414,2.128,5.414,8.377v28.863h-35.432v-28.863c0-6.249,5.414-8.377,5.414-8.377h-31.357s5.414,2.128,5.414,8.377v76.087c0,6.249-5.414,8.377-5.414,8.377h31.357s-5.414-2.128-5.414-8.377v-28.863h35.432v28.863c0,6.249-5.414,8.377-5.414,8.377h31.357s-5.414-2.128-5.414-8.377v-76.087c0-6.249,5.414-8.377,5.414-8.377Z"/>
    <path class="cls-4" d="m64.678,435.839H25.942v-17.232h33.767v-18.362H25.942v-17.232h32.118c6.249,0,8.377,5.414,8.377,5.414v-25.421H0s5.414,2.128,5.414,8.377v76.087c0,6.249-5.414,8.377-5.414,8.377h72.074v-25.372s-1.905,4.839-7.396,5.365Z"/>
    <polygon class="cls-4" points="389.778 370.099 379.826 352.82 369.874 370.099 379.826 384.644 389.778 370.099"/>
    <polygon class="cls-4" points="419.242 370.099 409.29 352.82 399.339 370.099 409.29 384.644 419.242 370.099"/>
    <path class="cls-4" d="m425.96,447.47v-49.675c0-6.249,5.414-8.377,5.414-8.377h-31.357s5.414,2.128,5.414,8.377v32.653s-.252,11.578-11.476,11.578c-7.304,0-11.114-3.958-11.114-14.376v-29.854c0-6.249,5.414-8.377,5.414-8.377h-31.357s5.414,2.128,5.414,8.377v36.078c0,12.141,7.561,24.022,22.114,24.022,14.309,0,18.504-5.977,20.645-12.198.134-.391.253-.788.36-1.188v11.337h25.942s-5.414-2.128-5.414-8.376Z"/>
    <path class="cls-4" d="m351.001,455.846s-5.414-2.128-5.414-8.376v-47.225h-52.721s5.414,2.128,5.414,8.377v9.985h25.2c0,3.093-2.991,19.481-22.871,19.481-17.049,0-26.101-13.779-26.101-28.662s11.129-27.861,27.158-27.861c12.687,0,19.998,8.467,19.998,8.467l21.214-16.194s-5.108.701-9.875-2.455c-7.077-4.728-17.702-10.628-33.163-10.628-18.246,0-45.298,11.248-45.298,48.67,0,34.228,22.318,48.469,42.5,48.469,13.935,0,23.397-8.743,28.47-19.224v17.175h25.487Z"/>
    <polygon class="cls-4" points="551.844 370.099 541.892 352.82 531.94 370.099 541.892 384.644 551.844 370.099"/>
    <polygon class="cls-4" points="581.308 370.099 571.356 352.82 561.404 370.099 571.356 384.644 581.308 370.099"/>
    <path class="cls-4" d="m588.026,447.47v-49.675c0-6.249,5.414-8.377,5.414-8.377h-31.357s5.414,2.128,5.414,8.377v32.653s-.252,11.578-11.476,11.578c-7.304,0-11.114-3.958-11.114-14.376v-29.854c0-6.249,5.414-8.377,5.414-8.377h-31.357s5.414,2.128,5.414,8.377v36.078h0c0,12.141,7.561,24.022,22.114,24.022,14.309,0,18.504-5.977,20.645-12.198.134-.391.253-.788.36-1.188v11.337h25.943s-5.414-2.128-5.414-8.376Z"/>
    <path class="cls-4" d="m483.123,455.846h31.357s-5.414-2.128-5.414-8.376v-36.078c0-12.141-7.561-24.022-22.114-24.022-14.309,0-18.504,5.977-20.645,12.198-.134.391-.253.787-.36,1.188v-11.338h-25.942s5.414,2.128,5.414,8.377v49.675c0,6.249-5.414,8.376-5.414,8.376h31.356s-5.414-2.128-5.414-8.376v-32.653s.252-11.578,11.476-11.578c7.304,0,11.114,3.958,11.114,14.377v29.854c0,6.249-5.414,8.376-5.414,8.376Z"/>
  </g>
</svg>